<svg xmlns="http://www.w3.org/2000/svg">
    <symbol id="home" viewBox="-5.0 -10.0 110.0 135.0">
        <path d="m54.27 16.238c-2.5742-1.7617-5.9648-1.7617-8.5391 0l-31.887 22.305c-2.6562 1.8477-3.8125 5.1992-2.8594 8.2891 0.94922 3.0938 3.793 5.2148 7.0273 5.25v29.5c0.003906 5.5234 4.4766 9.9961 10 10h44.008c5.5234-0.003906 9.9961-4.4766 10-10v-29.5c3.2344-0.035156 6.0781-2.1562 7.0273-5.25 0.95312-3.0898-0.20312-6.4414-2.8594-8.2891l-3.4805-2.4375v-16.406h0.40625c1.5391 0.066406 3.0391-0.5 4.1484-1.5664 1.1133-1.0625 1.7422-2.5352 1.7422-4.0742 0-1.5391-0.62891-3.0117-1.7422-4.0781-1.1094-1.0664-2.6094-1.6289-4.1484-1.5625h-15.719c-1.5352-0.066407-3.0352 0.49609-4.1484 1.5625-1.1094 1.0664-1.7383 2.5391-1.7383 4.0781 0 1.5391 0.62891 3.0117 1.7383 4.0742 1.1133 1.0664 2.6133 1.6328 4.1484 1.5664h0.41797v6.0195zm32.012 31.492c-1.0078 1.4297-2.6484 2.2773-4.3945 2.2695-1.0977 0-2.168-0.33594-3.0625-0.96875l-12.637-8.8242c-0.22656-0.15625-0.50781-0.21875-0.78125-0.17188-0.26953 0.046875-0.51172 0.20312-0.67188 0.42969-0.33203 0.46875-0.21484 1.1211 0.25391 1.4531l12.637 8.832c0.70312 0.48047 1.4883 0.83203 2.3125 1.043v29.789c-0.003906 4.3711-3.5469 7.9141-7.918 7.918h-44.039c-4.3711-0.003906-7.9141-3.5469-7.918-7.918v-29.758c0.82812-0.20703 1.6094-0.5625 2.3125-1.043l27.625-19.355 11.457 8.0195v0.003907c0.47266 0.32422 1.1211 0.21094 1.4492-0.26172 0.32812-0.46875 0.21875-1.1172-0.25-1.4492l-12.062-8.4375c-0.35547-0.24609-0.83203-0.24609-1.1875 0l-28.219 19.793c-2.4297 1.6992-5.7734 1.1094-7.4727-1.3164-1.7031-2.4297-1.1133-5.7734 1.3164-7.4766l31.895-22.352c1.8516-1.2734 4.2969-1.2734 6.1484 0l31.895 22.312c2.418 1.7031 3.0039 5.0391 1.3125 7.4688zm-22.449-33.68c0.007813-1.9609 1.6016-3.5508 3.5625-3.5508h15.719c0.97656-0.054688 1.9336 0.29688 2.6445 0.97266 0.71094 0.67188 1.1133 1.6055 1.1133 2.5859 0 0.97656-0.40234 1.9141-1.1133 2.5859-0.71094 0.67188-1.668 1.0234-2.6445 0.96875h-15.719c-0.94531 0-1.8516-0.375-2.5195-1.043-0.66797-0.66797-1.043-1.5742-1.043-2.5195zm6.0625 13.094v-7.4453h10.73v14.977l-10.762-7.5312zm-24.188 20.211h-13.543 0.003907c-0.57812 0-1.043 0.46484-1.043 1.0391v13.543c0 0.27734 0.10938 0.54297 0.30469 0.73828 0.19531 0.19531 0.46094 0.30469 0.73828 0.30469h13.543-0.003907c0.27734 0 0.54297-0.10938 0.73828-0.30469 0.19531-0.19531 0.30469-0.46094 0.30469-0.73828v-13.543c0-0.27344-0.10938-0.53906-0.30469-0.73438-0.19531-0.19531-0.46094-0.30469-0.73828-0.30469zm-1.043 13.543h-11.457v-11.457h11.457zm8.582-12.5v13.543l0.003906-0.003906c0 0.27734 0.10938 0.54297 0.30469 0.73828 0.19531 0.19531 0.46094 0.30469 0.73828 0.30469h13.543-0.003907c0.27734 0 0.54297-0.10938 0.73828-0.30469 0.19531-0.19531 0.30469-0.46094 0.30469-0.73828v-13.543c0-0.27344-0.10938-0.53906-0.30469-0.73438-0.19531-0.19531-0.46094-0.30469-0.73828-0.30469h-13.543 0.003907c-0.27734 0-0.54297 0.10938-0.73828 0.30469-0.19531 0.19531-0.30469 0.46094-0.30469 0.73438zm2.082 1.043h11.457v11.457h-11.457zm-9.6211 18.547h-13.543 0.003907c-0.57812 0-1.043 0.46875-1.043 1.043v13.543c0 0.27344 0.10938 0.53906 0.30469 0.73438 0.19531 0.19531 0.46094 0.30469 0.73828 0.30469h13.543-0.003907c0.27734 0 0.54297-0.10938 0.73828-0.30469 0.19531-0.19531 0.30469-0.46094 0.30469-0.73438v-13.543c0-0.27734-0.10938-0.54297-0.30469-0.73828-0.19531-0.19531-0.46094-0.30469-0.73828-0.30469zm-1.043 13.543h-11.457v-11.457h11.457zm23.145-13.543h-13.543 0.003906c-0.57422 0-1.0391 0.46875-1.0391 1.043v13.543c0 0.27344 0.10938 0.53906 0.30469 0.73438 0.19531 0.19531 0.46094 0.30469 0.73438 0.30469h13.543c0.27734 0 0.54297-0.10938 0.73828-0.30469 0.19531-0.19531 0.30469-0.46094 0.30469-0.73438v-13.543c0-0.27734-0.10938-0.54297-0.30469-0.73828-0.19531-0.19531-0.46094-0.30469-0.73828-0.30469zm-1.043 13.543h-11.457v-11.457h11.457z" />
    </symbol>
    <symbol id="events" viewBox="0 0 100 125">
        <path d="M76.53412,47.57373c3.12549-0.29712,5.57916-2.9353,5.57916-6.13721v-1.51465c0-0.01025-0.00555-0.01892-0.00586-0.02917  c-0.00348-0.12256-0.02509-0.24243-0.07135-0.35413c-0.00714-0.01709-0.02057-0.02991-0.02856-0.04663  c-0.04346-0.09033-0.09802-0.17419-0.16754-0.24854c-0.02979-0.03198-0.06543-0.05469-0.09918-0.08252  c-0.04083-0.03369-0.07477-0.07397-0.12164-0.10132c-0.72168-0.42285-1.86914-0.8418-3.45703-1.4209  c-6.13605-2.23901-17.50055-6.39819-26.94397-18.5481l14.42444-2.45483c0.99414-0.16992,1.68945-0.99219,1.68945-2.00098  s-0.69434-1.83203-1.68945-2.00195l-15.36133-2.61816c-0.28906-0.05078-0.58789,0.03125-0.8125,0.2207  C49.24316,10.42578,49.11328,10.70508,49.11328,11v7.95312c-9.46503,12.25952-20.89581,16.43787-27.05566,18.68555  c-1.58789,0.5791-2.73535,0.99805-3.45703,1.4209c-0.04688,0.02734-0.08069,0.06763-0.12152,0.1012  c-0.03381,0.02795-0.06952,0.05066-0.09937,0.08264c-0.06964,0.07458-0.12445,0.15857-0.16791,0.24927  c-0.00793,0.01636-0.021,0.02893-0.02802,0.0459c-0.04633,0.11157-0.06787,0.23145-0.07141,0.354  c-0.00031,0.01025-0.00592,0.01892-0.00592,0.0293v1.51465c0,3.1134,2.32141,5.68848,5.323,6.10229  c-0.01483,0.06543-0.04175,0.12549-0.04272,0.19653c-0.00195,0.16602-0.32617,16.85156-8.08887,40.95801  c-0.09766,0.30469-0.04395,0.63672,0.14355,0.89551C15.62988,89.84766,15.93066,90,16.25,90h67.5  c0.31934,0,0.62012-0.15234,0.80859-0.41113c0.1875-0.25879,0.24121-0.59082,0.14355-0.89551  C77.90125,67.57312,76.72314,51.36475,76.53412,47.57373z M80.11328,40.92188v0.51465c0,2.29785-1.86914,4.16699-4.16699,4.16699  s-4.16699-1.86914-4.16699-4.16699v-0.51465H80.11328z M30.44043,40.92188h8.33496v0.51465  c0,2.29785-1.86914,4.16699-4.16699,4.16699s-4.16797-1.86914-4.16797-4.16699V40.92188z M59.37451,38.92188H40.83905  c4.82501-4.52148,7.84808-11.95264,9.2674-16.17188C51.52777,26.96826,54.55212,34.39856,59.37451,38.92188z M40.77539,40.92188  h8.33496v0.51465c0,2.29785-1.87012,4.16699-4.16797,4.16699s-4.16699-1.86914-4.16699-4.16699V40.92188z M51.11035,41.43652  v-0.51465h8.33398v0.51465c0,2.29785-1.86914,4.16699-4.16699,4.16699S51.11035,43.73438,51.11035,41.43652z M39.77539,44.79224  c1.1012,1.6897,3.00415,2.81128,5.16699,2.81128c1.62122,0,3.09369-0.6333,4.19562-1.65942  c-0.76904,13.92346-11.15778,31.84607-15.59607,38.91797c3.55969-17.79578,4.18433-34.85034,4.27521-38.16919  C38.60254,46.21155,39.27301,45.56299,39.77539,44.79224z M50.19153,52.68213C53.46161,67.52429,63.79639,83.70605,66.6662,88  H33.9151C36.74622,83.71191,46.95984,67.52637,50.19153,52.68213z M51.24121,46.08838  c1.08295,0.9408,2.49237,1.51514,4.03613,1.51514c2.16284,0,4.0658-1.12158,5.16699-2.81128  c0.47937,0.73535,1.1109,1.36084,1.8501,1.83484c0.08191,3.07092,0.66919,19.64465,4.07465,37.1969  C61.60522,76.18579,52.04547,59.35168,51.24121,46.08838z M61.44434,41.43652v-0.51465h8.33496v0.51465  c0,2.29785-1.87012,4.16699-4.16797,4.16699S61.44434,43.73438,61.44434,41.43652z M75.85938,38.92188H62.53632  c-4.84637-3.31775-8.13422-10.34106-9.90222-15.07544C60.94623,32.84985,70.25079,36.82349,75.85938,38.92188z M51.11328,12.18945  l14.19336,2.47461L51.11328,17.0791V12.18945z M47.57837,23.85522c-1.76569,4.7334-5.04974,11.74939-9.90161,15.06567  c-0.00037,0.00024-0.00061,0.00073-0.00098,0.00098H24.36035C29.9671,36.82422,39.26758,32.85229,47.57837,23.85522z   M20.10645,41.43652v-0.51465h8.33398v0.51465c0,2.29785-1.86914,4.16699-4.16699,4.16699S20.10645,43.73438,20.10645,41.43652z   M25.38672,47.76465c0.00128-0.0918-0.02661-0.1748-0.04858-0.25964c1.71448-0.30017,3.18634-1.30725,4.10236-2.71289  c1.10126,1.6897,3.00446,2.8114,5.16791,2.8114c0.40491,0,0.80005-0.04175,1.18341-0.1167  C35.62213,52.51575,34.7641,70.31531,30.83563,88H17.61719C25.06738,64.3125,25.38379,47.92969,25.38672,47.76465z M69.27765,88  c-3.9328-17.70435-4.78857-35.53564-4.95679-40.53467c0.41656,0.08911,0.84772,0.13818,1.29047,0.13818  c2.16345,0,4.06671-1.1217,5.16797-2.8114c0.85187,1.30713,2.18463,2.26929,3.74615,2.63953  C74.68005,50.79712,75.73901,66.85681,82.38281,88H69.27765z" />
        <path d="M89.14355,18.67871l-5.00781-0.72852l-2.23926-4.53711c-0.33594-0.68359-1.45703-0.68359-1.79297,0l-2.23926,4.53711  l-5.00781,0.72852c-0.37695,0.05469-0.68945,0.31836-0.80762,0.68066c-0.11719,0.36133-0.01953,0.75879,0.25293,1.02441  l3.62402,3.53223l-0.85547,4.9873c-0.06445,0.375,0.08984,0.75391,0.39746,0.97754c0.30957,0.22461,0.7168,0.25391,1.05371,0.07617  L81,27.60254l4.47852,2.35449c0.14648,0.07715,0.30664,0.11523,0.46582,0.11523c0.20703,0,0.41309-0.06445,0.58789-0.19141  c0.30762-0.22363,0.46191-0.60254,0.39746-0.97754l-0.85547-4.9873l3.62402-3.53223  c0.27246-0.26562,0.37012-0.66309,0.25293-1.02441C89.83301,18.99707,89.52051,18.7334,89.14355,18.67871z M84.30176,22.85059  c-0.23535,0.22949-0.34277,0.56055-0.28711,0.88477l0.60156,3.50879l-3.15039-1.65625  C81.31934,25.51074,81.16016,25.47266,81,25.47266s-0.31934,0.03809-0.46582,0.11523l-3.15039,1.65625l0.60156-3.50879  c0.05566-0.32422-0.05176-0.65527-0.28711-0.88477l-2.54883-2.48438l3.52246-0.5127  c0.32617-0.04688,0.60742-0.25195,0.75293-0.54688L81,16.11523l1.5752,3.19141c0.14551,0.29492,0.42676,0.5,0.75293,0.54688  l3.52246,0.5127L84.30176,22.85059z" />
        <path d="M33.0918,15.76465c-0.11816-0.3623-0.43066-0.62598-0.80762-0.68066l-4.30469-0.62598l-1.9248-3.90039  C25.88672,10.21582,25.53906,10,25.1582,10s-0.72852,0.21582-0.89648,0.55762l-1.92578,3.90039l-4.30371,0.62598  c-0.37695,0.05469-0.68945,0.31836-0.80762,0.68066c-0.11719,0.36133-0.01953,0.75879,0.25293,1.02441l3.11523,3.03613  l-0.73535,4.28711c-0.06445,0.375,0.08984,0.75391,0.39746,0.97754c0.31055,0.22461,0.71875,0.25391,1.05273,0.07617  l3.85059-2.02344l3.85059,2.02344c0.14551,0.07715,0.30566,0.11523,0.46484,0.11523c0.20703,0,0.41406-0.06445,0.58789-0.19141  c0.30762-0.22363,0.46191-0.60254,0.39746-0.97754l-0.73535-4.28711l3.11523-3.03613  C33.11133,16.52344,33.20898,16.12598,33.0918,15.76465z M27.95117,18.75977c-0.23535,0.22949-0.34277,0.56055-0.28711,0.88477  l0.48145,2.80859l-2.52246-1.3252c-0.14551-0.07715-0.30469-0.11523-0.46484-0.11523s-0.31934,0.03809-0.46484,0.11523  l-2.52246,1.3252l0.48145-2.80859c0.05566-0.32422-0.05176-0.65527-0.28711-0.88477l-2.04004-1.98828l2.81836-0.41016  c0.32617-0.04688,0.60742-0.25195,0.75293-0.54688l1.26172-2.55469l1.26074,2.55469c0.14551,0.29492,0.42676,0.5,0.75293,0.54688  l2.81934,0.41016L27.95117,18.75977z" />
        <path d="M16.37402,32.625c0.55273,0,1-0.44727,1-1s-0.44727-1-1-1h-1.6875v-1.68652c0-0.55273-0.44727-1-1-1s-1,0.44727-1,1V30.625  H11c-0.55273,0-1,0.44727-1,1s0.44727,1,1,1h1.68652v1.68652c0,0.55273,0.44727,1,1,1s1-0.44727,1-1V32.625H16.37402z" />
        <path d="M65.61133,27.56152c0.55273,0,1-0.44727,1-1V24.875h1.6875c0.55273,0,1-0.44727,1-1s-0.44727-1-1-1h-1.6875v-1.68652  c0-0.55273-0.44727-1-1-1s-1,0.44727-1,1V22.875H62.9248c-0.55273,0-1,0.44727-1,1s0.44727,1,1,1h1.68652v1.68652  C64.61133,27.11426,65.05859,27.56152,65.61133,27.56152z" />
    </symbol>
    <symbol id="rides" viewBox="0 0 96 120">
        <path d="M93.02,33.664c-2.134-0.532-4.143-0.775-6.053-0.777c-0.013,0-0.027-0.002-0.04-0.002c-0.009,0-0.018,0.001-0.027,0.001  c-9.294,0.017-16.209,5.756-23.458,11.77c-4.449,3.692-9.107,7.555-14.666,10.447l-2.88-7.109c0.62-0.311,1.219-0.659,1.791-1.043  c0.166,0.357,0.392,0.688,0.679,0.975c0.664,0.664,1.536,0.996,2.407,0.996s1.744-0.332,2.407-0.996  c1.327-1.327,1.327-3.487,0-4.814c-0.291-0.291-0.623-0.514-0.976-0.677c1.182-1.762,2.032-3.766,2.459-5.919  c0.364,0.133,0.754,0.209,1.163,0.209c1.877,0,3.404-1.527,3.404-3.405c0-1.877-1.527-3.404-3.404-3.404  c-0.409,0-0.8,0.076-1.163,0.209c-0.427-2.154-1.276-4.157-2.459-5.92c0.353-0.163,0.685-0.387,0.976-0.677  c1.327-1.327,1.327-3.487,0-4.814c-1.327-1.328-3.487-1.328-4.815,0c-0.287,0.287-0.513,0.618-0.679,0.975  c-1.762-1.182-3.765-2.031-5.918-2.458c0.133-0.364,0.209-0.754,0.209-1.163c0-1.877-1.527-3.405-3.405-3.405  s-3.405,1.527-3.405,3.405c0,0.409,0.076,0.799,0.209,1.163c-2.154,0.427-4.157,1.277-5.919,2.459  c-0.163-0.353-0.387-0.685-0.677-0.976c-1.327-1.327-3.487-1.327-4.815,0c0,0,0,0,0,0c-1.327,1.327-1.327,3.487,0,4.815  c0.291,0.291,0.623,0.514,0.976,0.677c-1.182,1.763-2.032,3.766-2.459,5.92c-0.364-0.133-0.754-0.209-1.163-0.209  c-1.877,0-3.404,1.527-3.404,3.404c0,1.877,1.527,3.405,3.404,3.405c0.409,0,0.8-0.076,1.163-0.209  c0.427,2.154,1.277,4.157,2.459,5.92c-0.353,0.163-0.685,0.387-0.976,0.677c-1.327,1.327-1.327,3.487,0,4.814c0,0,0,0,0,0  c0.664,0.663,1.535,0.995,2.407,0.995s1.744-0.332,2.407-0.996c0.291-0.291,0.514-0.623,0.677-0.976  c0.573,0.384,1.172,0.733,1.793,1.044l-4.709,11.625c-6.48-0.445-13.958-2.223-22.764-5.875c-0.652-0.27-1.399,0.039-1.669,0.691  c-0.27,0.652,0.039,1.399,0.691,1.669c0.875,0.363,1.743,0.709,2.602,1.04v24.918c0,0.706,0.572,1.277,1.277,1.277  s1.277-0.572,1.277-1.277V58.088c1.86,0.658,3.683,1.24,5.47,1.743v22.231c0,0.706,0.572,1.277,1.277,1.277s1.277-0.572,1.277-1.277  V60.503c1.862,0.455,3.684,0.823,5.47,1.105v20.454c0,0.706,0.572,1.277,1.277,1.277c0.705,0,1.277-0.572,1.277-1.277V61.954  c1.864,0.21,3.686,0.322,5.47,0.336v19.771c0,0.706,0.572,1.277,1.277,1.277c0.705,0,1.277-0.572,1.277-1.277v-19.82  c1.865-0.086,3.688-0.285,5.47-0.594v20.414c0,0.706,0.572,1.277,1.277,1.277s1.277-0.572,1.277-1.277V61.119  c0.567-0.136,1.13-0.282,1.688-0.441c1.305-0.372,2.563-0.804,3.782-1.282v22.666c0,0.706,0.572,1.277,1.277,1.277  c0.705,0,1.277-0.572,1.277-1.277V58.298c1.922-0.898,3.74-1.908,5.47-2.99v26.754c0,0.706,0.572,1.277,1.277,1.277  c0.705,0,1.277-0.572,1.277-1.277V53.623c1.919-1.331,3.733-2.73,5.47-4.128v32.566c0,0.706,0.572,1.277,1.277,1.277  s1.277-0.572,1.277-1.277V47.405c0.316-0.262,0.631-0.523,0.943-0.782c1.537-1.275,3.036-2.519,4.526-3.686v39.125  c0,0.706,0.572,1.277,1.277,1.277s1.277-0.572,1.277-1.277V41.017c1.795-1.282,3.602-2.415,5.47-3.319v44.363  c0,0.706,0.572,1.277,1.277,1.277s1.277-0.572,1.277-1.277V36.627c1.742-0.615,3.554-1.013,5.47-1.139v46.573  c0,0.706,0.572,1.277,1.277,1.277s1.277-0.572,1.277-1.277V35.484c1.342,0.082,2.737,0.295,4.197,0.659  c0.685,0.17,1.378-0.246,1.549-0.93S93.704,33.835,93.02,33.664z M55.827,32.469c0.468,0,0.85,0.381,0.85,0.85  s-0.381,0.85-0.85,0.85c-0.469,0-0.85-0.381-0.85-0.85S55.358,32.469,55.827,32.469z M21.321,34.168c-0.468,0-0.85-0.381-0.85-0.85  s0.381-0.85,0.85-0.85c0.469,0,0.85,0.381,0.85,0.85S21.789,34.168,21.321,34.168z M51.374,46.119c-0.331,0.331-0.87,0.331-1.202,0  c-0.16-0.16-0.249-0.374-0.249-0.601c0-0.227,0.088-0.44,0.249-0.601c0.166-0.166,0.383-0.248,0.601-0.248s0.435,0.083,0.601,0.248  C51.706,45.249,51.706,45.788,51.374,46.119z M49.223,42.161l-7.565-7.565h10.703C52.098,37.457,50.963,40.069,49.223,42.161z   M50.173,20.518c0.166-0.166,0.383-0.248,0.601-0.248s0.435,0.083,0.601,0.248c0.331,0.331,0.331,0.87,0,1.202  c-0.331,0.331-0.87,0.331-1.202,0c-0.16-0.16-0.249-0.374-0.249-0.601C49.924,20.892,50.012,20.679,50.173,20.518z M49.223,24.476  c1.74,2.093,2.875,4.704,3.138,7.565H41.658L49.223,24.476z M39.851,19.531c2.861,0.263,5.472,1.398,7.565,3.139l-7.565,7.565  V19.531z M39.851,36.403l7.565,7.565c-2.093,1.741-4.704,2.875-7.565,3.138V36.403z M38.574,15.216c0.469,0,0.85,0.381,0.85,0.85  c0,0.468-0.38,0.849-0.848,0.849c-0.001,0-0.001,0-0.002,0s-0.001,0-0.002,0c-0.468-0.001-0.848-0.381-0.848-0.849  C37.724,15.597,38.105,15.216,38.574,15.216z M38.574,49.722c0.469,0,0.85,0.381,0.85,0.85s-0.381,0.85-0.85,0.85  s-0.85-0.381-0.85-0.85S38.105,49.722,38.574,49.722z M37.296,19.531v10.704l-7.565-7.565  C31.824,20.929,34.436,19.794,37.296,19.531z M25.773,20.518L25.773,20.518c0.331-0.331,0.87-0.331,1.202,0  c0.331,0.331,0.331,0.87,0,1.202c-0.331,0.331-0.87,0.331-1.202,0C25.442,21.388,25.442,20.849,25.773,20.518z M27.925,24.476  l7.565,7.565H24.786C25.049,29.18,26.184,26.569,27.925,24.476z M26.975,46.119c-0.331,0.331-0.87,0.331-1.202,0h0  c-0.331-0.331-0.331-0.87,0-1.201c0.331-0.331,0.87-0.331,1.202,0C27.306,45.249,27.306,45.788,26.975,46.119z M27.925,42.161  c-1.741-2.093-2.875-4.704-3.138-7.565H35.49L27.925,42.161z M29.731,43.968l7.565-7.565v10.703  C34.436,46.843,31.824,45.708,29.731,43.968z M46.008,56.426c-4.784,2.077-10.244,3.384-16.754,3.305l4.364-10.774  c0.574,0.182,1.161,0.334,1.76,0.452c-0.133,0.364-0.209,0.754-0.209,1.163c0,1.877,1.527,3.405,3.405,3.405  s3.405-1.527,3.405-3.405c0-0.409-0.076-0.799-0.209-1.163c0.599-0.119,1.186-0.27,1.76-0.452l2.932,7.238  C46.294,56.241,46.14,56.32,46.008,56.426z" />
    </symbol>
    <symbol id="tickets" viewBox="0 0 100 125">
        <path d="M89.44043,52.75684l-16.82666-8.24939L61.13574,32.9541c-0.36328-0.36426-0.94141-0.39453-1.33984-0.07129  c-1.74121,1.41309-4.24805,1.27539-5.83105-0.31641c-1.58789-1.59766-1.72266-4.12793-0.31348-5.88477  c0.31836-0.39746,0.28809-0.96973-0.07129-1.33105L38.65332,10.33105c-0.375-0.37695-1.04297-0.37695-1.41797,0L10.40918,37.32617  c-0.3877,0.39062-0.3877,1.01953,0,1.41016l6.29602,6.33557l-6.60559,13.64197c-0.23926,0.49512-0.03418,1.09082,0.45996,1.33301  l19.54395,9.58203c0.46387,0.22754,1.01953,0.06641,1.28906-0.36914c1.23242-1.97754,3.73535-2.69824,5.82227-1.67578  c2.0918,1.02637,3.07227,3.45898,2.28125,5.66016c-0.17285,0.48047,0.04492,1.01367,0.50391,1.2373l11.4707,5.57886l4.19727,4.22485  c0.1875,0.18848,0.44238,0.29492,0.70898,0.29492s0.52148-0.10645,0.70898-0.29492l0.9538-0.95972l13.40558,6.57202  C71.58398,89.96582,71.73438,90,71.88574,90c0.11035,0,0.21973-0.01855,0.32617-0.05469  c0.25098-0.08691,0.45801-0.27051,0.57422-0.50977l17.11426-35.3457C90.13965,53.59473,89.93457,52.99902,89.44043,52.75684z   M30.22949,67.46289l-17.89551-8.77344l5.8656-12.11377l7.13538,7.18018c0.3623,0.36426,0.94043,0.39355,1.33984,0.07129  c1.74023-1.41406,4.24707-1.27734,5.83105,0.31543c1.58789,1.59863,1.72266,4.12891,0.31348,5.88477  c-0.31836,0.39746-0.28809,0.96973,0.07129,1.33105l3.95612,3.98206C34.42828,64.71423,31.84705,65.52039,30.22949,67.46289z   M41.62695,73.04883c0.21283-1.00391,0.16852-2.01526-0.07269-2.96997l5.64087,5.67786L41.62695,73.04883z M56.37695,82.16113  l-3.5448-3.56812c-0.00739-0.00879-0.01624-0.01562-0.02399-0.02417L34.89453,60.53711  c1.28998-2.16968,1.18085-4.89868-0.26202-6.95703l1.99152-2.00391c0.38965-0.3916,0.3877-1.02539-0.00391-1.41406  c-0.3916-0.38965-1.02441-0.38672-1.41406,0.00391l-1.96991,1.98218c-2.06274-1.5636-4.85504-1.72925-7.07501-0.39819  l-7.47925-7.52637c-0.01465-0.01758-0.03198-0.03162-0.04791-0.04834l-6.10565-6.14404l25.41602-25.57617l13.63184,13.7168  c-1.32605,2.23022-1.16144,5.04517,0.39783,7.12158l-1.86853,1.87939c-0.38965,0.3916-0.3877,1.02441,0.00391,1.41406  c0.19531,0.19434,0.4502,0.29102,0.70508,0.29102c0.25684,0,0.51367-0.09863,0.70898-0.29492l1.87622-1.88721  c2.04541,1.44604,4.75482,1.55554,6.90991,0.26416l21.48438,21.62598L56.37695,82.16113z M71.42383,87.66016l-11.89612-5.83203  l24.38538-24.53711c0.3877-0.39062,0.3877-1.01953,0-1.41016L76.927,48.849l10.73901,5.26526L71.42383,87.66016z" />
        <path d="M41.01172,44.32422l-2.5166,2.53223c-0.38965,0.3916-0.3877,1.02539,0.00391,1.41406  c0.19531,0.19434,0.4502,0.29102,0.70508,0.29102c0.25684,0,0.51367-0.09863,0.70898-0.29492l2.5166-2.53223  c0.38965-0.3916,0.3877-1.02539-0.00391-1.41406C42.03418,43.93066,41.40137,43.93359,41.01172,44.32422z" />
        <path d="M44.30078,41.01465c-0.38965,0.39258-0.3877,1.02539,0.00391,1.41406c0.19531,0.19434,0.4502,0.29102,0.70508,0.29102  c0.25684,0,0.51367-0.09863,0.70898-0.29492l2.51562-2.53223c0.38965-0.39258,0.3877-1.02539-0.00391-1.41406  c-0.3916-0.38965-1.02441-0.38672-1.41406,0.00391L44.30078,41.01465z" />
        <path d="M41.98828,34.83887c0.17676,0.13281,0.3877,0.2002,0.60059,0.2002c0.1543,0,0.30957-0.03613,0.45215-0.1084  c0.33984-0.17188,0.55273-0.52344,0.54785-0.9043l-0.05176-4.13379l3.35156-2.38477c0.30957-0.21973,0.4668-0.59668,0.40723-0.97168  s-0.32617-0.68359-0.68848-0.79688l-3.91797-1.22656l-1.21875-3.94336c-0.1123-0.36523-0.42285-0.63379-0.79883-0.69238  c-0.38281-0.06543-0.75488,0.10059-0.97461,0.41211l-2.36816,3.37012l-4.10059-0.05273  c-0.35352,0.00391-0.72949,0.20605-0.90332,0.54492c-0.17285,0.33789-0.13867,0.74512,0.08691,1.05078l2.45703,3.3125  l-1.31934,3.91504c-0.12207,0.36035-0.02832,0.75879,0.24121,1.02734c0.26953,0.27051,0.66699,0.36035,1.0293,0.23828  l3.88184-1.32422L41.98828,34.83887z M36.0918,31.14844l0.83887-2.49023c0.10449-0.31055,0.05078-0.65234-0.14355-0.91504  l-1.56543-2.11035l2.60938,0.0332c0.00391,0,0.00879,0,0.0127,0c0.3252,0,0.63086-0.1582,0.81836-0.4248l1.5-2.13477  l0.77246,2.49902c0.09668,0.31445,0.34277,0.56152,0.65625,0.65918l2.49707,0.78125l-2.1377,1.52148  c-0.2666,0.18945-0.42383,0.49902-0.41992,0.82715l0.0332,2.62402l-2.08301-1.56445c-0.17578-0.13184-0.38672-0.2002-0.60059-0.2002  c-0.1084,0-0.21777,0.01758-0.32324,0.05371L36.0918,31.14844z" />
        <path d="M35.84961,36.5625l-3.91797-1.22559l-1.21875-3.94434c-0.1123-0.36426-0.42188-0.63379-0.79883-0.69238  c-0.38379-0.06738-0.75488,0.09961-0.97461,0.41211l-2.36914,3.37012l-4.09961-0.05273  c-0.39453-0.02051-0.73047,0.20605-0.90332,0.54492c-0.17285,0.33789-0.13867,0.74512,0.08691,1.05078l2.45703,3.3125  l-1.31934,3.91504c-0.12207,0.36035-0.02832,0.75879,0.24121,1.02734c0.26953,0.26953,0.66895,0.36035,1.0293,0.23828  l3.88184-1.32422l3.28613,2.46777c0.17676,0.13281,0.3877,0.2002,0.60059,0.2002c0.1543,0,0.30957-0.03613,0.45312-0.1084  c0.33984-0.17285,0.55176-0.52344,0.54688-0.9043l-0.05273-4.13281l3.35254-2.38574c0.30957-0.21973,0.4668-0.59668,0.40723-0.97168  S36.21191,36.67578,35.84961,36.5625z M31.19141,39.3916c-0.2666,0.18945-0.42383,0.49902-0.41992,0.82715l0.0332,2.62305  l-2.08203-1.56445c-0.17578-0.13184-0.38672-0.2002-0.60059-0.2002c-0.1084,0-0.21777,0.01758-0.32324,0.05371l-2.46484,0.84082  l0.83887-2.49023c0.10449-0.31055,0.05078-0.65234-0.14355-0.91504l-1.56543-2.11035l2.6084,0.0332  c0.31738-0.00977,0.6416-0.15527,0.83105-0.4248l1.5-2.13477l0.77246,2.5c0.09668,0.31445,0.34277,0.56152,0.65625,0.65918  l2.49707,0.78125L31.19141,39.3916z" />
        <path d="M44.68945,58.24609c-0.38965-0.3916-1.02246-0.39453-1.41406-0.00391c-0.3916,0.38867-0.39355,1.02246-0.00391,1.41406  l14.60645,14.69727c0.19531,0.19629,0.45215,0.29492,0.70898,0.29492c0.25488,0,0.50977-0.09668,0.70508-0.29102  c0.3916-0.38867,0.39355-1.02246,0.00391-1.41406L44.68945,58.24609z" />
        <path d="M49.6084,53.29688c-0.38965-0.3916-1.02246-0.39551-1.41406-0.00391c-0.3916,0.38867-0.39355,1.02246-0.00391,1.41406  L62.7959,69.4043c0.19531,0.19629,0.45215,0.29492,0.70898,0.29492c0.25488,0,0.50977-0.09668,0.70508-0.29102  c0.3916-0.38867,0.39355-1.02246,0.00391-1.41406L49.6084,53.29688z" />
        <path d="M54.52637,48.34863c-0.38965-0.3916-1.02246-0.39453-1.41406-0.00391c-0.3916,0.38867-0.39355,1.02246-0.00391,1.41406  l14.60547,14.69629c0.19531,0.19629,0.45215,0.29492,0.70898,0.29492c0.25488,0,0.50977-0.09668,0.70508-0.29102  c0.3916-0.38867,0.39355-1.02246,0.00391-1.41406L54.52637,48.34863z" />
        <path d="M74.0498,58.09668L59.44434,43.39941c-0.38965-0.3916-1.02246-0.39453-1.41406-0.00391  c-0.3916,0.38867-0.39355,1.02246-0.00391,1.41406l14.60547,14.69727c0.19531,0.19629,0.45215,0.29492,0.70898,0.29492  c0.25488,0,0.50977-0.09668,0.70508-0.29102C74.4375,59.12207,74.43945,58.48828,74.0498,58.09668z" />
    </symbol>
    <symbol id="info" viewBox="0 0 100 125">
        <path class="cls-1" d="M38.027,42.986c11.916-4.378,16.955-2.96,18.58,1.462,1.473,4.01-.235,10.4-2.012,17.043-.43,1.609-.865,3.233-1.24,4.76-.268,1.5.016,2.514.892,3,1.106.61,3.07.643,5.948.058a1.025,1.025,0,0,1,1.207.8,1,1,0,0,1-.019.482h0l-.8,2.815a1.028,1.028,0,0,1-.778.726l-.573.167c-3.5,1.023-8.783,2.565-12.906,2.072S39.255,73.554,40,67.31a1.077,1.077,0,0,1,.038-.181c.415-1.533,1.052-3.375,1.721-5.308,1.643-4.746,3.487-10.075,2.631-12.808-.507-1.621-2.322-2.234-6.465-.936A1.03,1.03,0,0,1,36.636,46.8l.747-3.085a1.027,1.027,0,0,1,.645-.723v0ZM50,10.153A39.847,39.847,0,1,0,78.176,21.824,39.723,39.723,0,0,0,50,10.153Zm27.447,12.4A38.816,38.816,0,1,0,88.816,50,38.695,38.695,0,0,0,77.447,22.553ZM50,5A45,45,0,1,0,95,50,45,45,0,0,0,50,5ZM92.939,50A42.939,42.939,0,1,0,50,92.939,42.94,42.94,0,0,0,92.939,50ZM54,23.6a7.095,7.095,0,1,1-5.019,2.078A7.077,7.077,0,0,1,54,23.6Zm3.561,3.536A5.037,5.037,0,1,1,54,25.658a5.02,5.02,0,0,1,3.561,1.475ZM54.675,45.156c-1.175-3.2-5.33-4.056-15.426-.424l-.221.915c4.414-1,6.546.255,7.329,2.754,1.055,3.368-.908,9.039-2.656,14.088-.637,1.842-1.245,3.6-1.662,5.132-.531,4.635,1.58,6.356,4.528,6.709,3.722.445,8.755-1.025,12.093-2l.1-.029.2-.7c-2.536.347-4.426.155-5.7-.549-1.748-.965-2.364-2.7-1.922-5.166a1.023,1.023,0,0,1,.02-.108c.406-1.653.831-3.244,1.253-4.819C54.3,54.634,55.924,48.555,54.675,45.156Z" fill-rule="evenodd" />
    </symbol>
</svg>